<?xml version="1.0" encoding="utf-8"?>
<!--

    Copyright (c) 2012-2017 Codenvy, S.A.
    All rights reserved. This program and the accompanying materials
    are made available under the terms of the Eclipse Public License v1.0
    which accompanies this distribution, and is available at
    http://www.eclipse.org/legal/epl-v10.html

    Contributors:
      Codenvy, S.A. - initial API and implementation

-->
<svg
   xmlns:dc="http://purl.org/dc/elements/1.1/"
   xmlns:cc="http://creativecommons.org/ns#"
   xmlns:rdf="http://www.w3.org/1999/02/22-rdf-syntax-ns#"
   xmlns:svg="http://www.w3.org/2000/svg"
   xmlns="http://www.w3.org/2000/svg"
   version="1.1"
   width="32"
   height="32"
   viewBox="0 0 32 32"
   id="svg2"
   xml:space="preserve"><metadata
     id="metadata14"></metadata><defs
     id="defs12" /><path
     d="m 27.552186,28.761593 m -11.282,-12.626"
     id="path4"
     style="fill:#4d4d4d;fill-rule:evenodd" /><path
     d="M 27.772186,0.13559322 H 8.4381864 c -0.138,0 -0.258,0.05 -0.356,0.148 L 0.41618644,7.9895932 c -0.096,0.096 -0.144,0.216 -0.144,0.352 V 31.635593 c 0,0.276 0.224,0.5 0.498,0.5 7.83399996,0 15.66799956,0 23.50199956,0 h 0.93 l -4,-4 H 4.2721864 V 9.7915932 h 5.156 c 0.274,0 0.498,-0.224 0.498,-0.5 v -5.156 l 14.3459996,0 V 22.519593 c 0.562,-1.532 2.036,-2.626 3.756,-2.626 h 0.244 V 0.63559322 c 0,-0.276 -0.224,-0.5 -0.5,-0.5 l 0,0 z m -15.784,15.48599978 c -0.022,0.29 -0.002,0.578 0.05,0.86 l -1.55,0.564 c 0.12,0.622 0.416,1.204 0.866,1.664 l 0.824,-0.298 c 0.264,0.272 0.582,0.5 0.946,0.67 1.624,0.758 3.56,0.052 4.318,-1.57 0.168,-0.364 0.264,-0.744 0.292,-1.124 l 1.744,-0.634 c 0.066,0.83 -0.072,1.688 -0.452,2.498 -1.164,2.498 -4.144,3.584 -6.644,2.42 -0.808,-0.378 -1.466,-0.948 -1.95,-1.626 l 0.75,-0.274 -1.5759996,0.572 c -0.364,-0.512 -0.626,-1.088 -0.78,-1.694 l 1.5499996,-0.564 c -0.068,-0.27 -0.116,-0.548 -0.138,-0.828 l -0.7259996,0.264 c -0.066,-0.832 0.074,-1.69 0.452,-2.5 1.1639996,-2.498 4.1459996,-3.584 6.6439996,-2.418 0.808,0.376 1.468,0.944 1.954,1.624 l 0.726,-0.264 c 0.164,0.228 0.304,0.472 0.426,0.724 l -1.55,0.564 c 0.274,0.562 0.44,1.172 0.49,1.8 l -1.744,0.634 c 0.046,-0.64 -0.1,-1.276 -0.408,-1.83 l 1.552,-0.564 c -0.138,-0.25 -0.31,-0.484 -0.514,-0.692 l -0.728,0.264 c -0.264,-0.272 -0.58,-0.502 -0.944,-0.672 -1.624,-0.756 -3.56,-0.052 -4.316,1.57 -0.17,0.364 -0.262,0.744 -0.292,1.124 l 0.728,-0.264 z"
     id="path6"
     style="fill:#808080;fill-rule:evenodd" /><path
     d="m 32.270186,27.893593 h -2.242 v -6 h -2 c -1.1,0 -2,0.898 -2,2 v 4 h -2.242 l 4.242,4.242 4.242,-4.242 z"
     id="path8"
     style="/*fill:#3193d4;fill-rule:evenodd*/" /></svg>
