<?xml version="1.0" encoding="utf-8"?>
<!--

    Copyright (c) 2012-2018 Red Hat, Inc.
    All rights reserved. This program and the accompanying materials
    are made available under the terms of the Eclipse Public License v1.0
    which accompanies this distribution, and is available at
    http://www.eclipse.org/legal/epl-v10.html

    Contributors:
      Red Hat, Inc. - initial API and implementation

-->
<svg
   xmlns:dc="http://purl.org/dc/elements/1.1/"
   xmlns:cc="http://creativecommons.org/ns#"
   xmlns:rdf="http://www.w3.org/1999/02/22-rdf-syntax-ns#"
   xmlns:svg="http://www.w3.org/2000/svg"
   xmlns="http://www.w3.org/2000/svg"
   version="1.1"
   width="32"
   height="32"
   viewBox="0 0 32 32"
   id="svg2"
   xml:space="preserve"><metadata
     id="metadata12"></metadata><defs
     id="defs10" /><path
     d="m 9.899,0.27118644 h 20.102 c 1.1,0 1.998,0.90199996 1.998,1.99999996 V 18.701186 l -1.35,-1.35 c -0.73,-0.73 -1.692,-1.088 -2.648,-1.078 V 4.2711864 H 13.899 l -4,-3.99999996 0,0 z m 4.482,14.38199956 -0.874,0.318 c 0.036,-0.454 0.146,-0.91 0.35,-1.346 0.908,-1.948 3.232,-2.792 5.18,-1.884 0.438,0.204 0.814,0.482 1.134,0.806 l 0.874,-0.318 c 0.244,0.25 0.45,0.53 0.616,0.83 l -1.862,0.676 c 0.37,0.664 0.542,1.426 0.486,2.196 l 2.094,-0.762 c -0.06,-0.75 -0.26,-1.484 -0.588,-2.158 l 1.864,-0.678 c -0.146,-0.302 -0.316,-0.594 -0.512,-0.868 l -0.874,0.318 c -0.582,-0.814 -1.374,-1.496 -2.342,-1.9479996 -3,-1.398 -6.578,-0.096 -7.974,2.9019996 -0.454,0.97 -0.622,2 -0.542,3 l 0.874,-0.318 c 0.028,0.336 0.086,0.668 0.166,0.994 l -1.862,0.678 c 0.184,0.728 0.5,1.416 0.938,2.032 l 1.89,-0.69 -0.902,0.328 c 0.58,0.816 1.372,1.498 2.34,1.95 3,1.398 6.576,0.098 7.974,-2.9 0.454,-0.97 0.622,-2 0.542,-2.998 l -2.094,0.762 c -0.034,0.454 -0.148,0.91 -0.352,1.346 -0.91,1.948 -3.232,2.794 -5.182,1.886 -0.436,-0.206 -0.818,-0.48 -1.134,-0.806 l -0.99,0.362 c -0.538,-0.552 -0.894,-1.25 -1.038,-1.996 l 1.864,-0.678 c -0.066,-0.34 -0.088,-0.688 -0.064,-1.036 l 0,0 z m 2.18,15.618 c -0.764,-1.22 -0.746,-2.794 0.054,-4 H 6.241 V 4.5151864 H 8.483 L 4.243,0.27118644 0.001,4.5151864 H 2.243 V 28.273186 c 0,1.1 0.9,1.998 2,1.998 h 12.318 z"
     id="path4"
     style="fill:#808080;fill-rule:evenodd" /><path
     d="m 18.493,27.119186 2.388,-2.386 c 0.654,-0.656 1.728,-0.656 2.384,0 l -3.58,3.58 2.274,2.274 3.58,-3.58 c 0.656,0.656 0.656,1.728 0,2.384 l -2.388,2.388 c -0.656,0.656 -1.728,0.656 -2.386,0 l -2.272,-2.274 c -0.656,-0.656 -0.656,-1.728 0,-2.386 l 0,0 z m 4.716,1.136 4.774,-4.774 c 0.328,-0.33 0.328,-0.866 0,-1.194 v -0.002 c -0.328,-0.328 -0.866,-0.328 -1.194,0 l -4.774,4.776 c -0.328,0.328 -0.33,0.864 0,1.194 l 0,0 c 0.33,0.328 0.866,0.328 1.194,0 l 0,0 z m 1.25,-7.104 c -0.656,0.656 -0.656,1.728 0,2.386 l 3.582,-3.582 2.274,2.274 -3.582,3.58 c 0.656,0.658 1.728,0.658 2.386,0 l 2.386,-2.386 c 0.656,-0.656 0.658,-1.73 0,-2.386 l -2.272,-2.272 c -0.656,-0.658 -1.73,-0.658 -2.386,-0.002 l -2.388,2.388 z"
     id="path6"
     style="/*fill:#3193d4;fill-rule:evenodd*/" /></svg>
