<?xml version="1.0" encoding="utf-8"?>
<!--

    Copyright (c) 2012-2017 Codenvy, S.A.
    All rights reserved. This program and the accompanying materials
    are made available under the terms of the Eclipse Public License v1.0
    which accompanies this distribution, and is available at
    http://www.eclipse.org/legal/epl-v10.html

    Contributors:
      Codenvy, S.A. - initial API and implementation

-->
<!DOCTYPE svg PUBLIC "-//W3C//DTD SVG 1.1//EN" "http://www.w3.org/Graphics/SVG/1.1/DTD/svg11.dtd">
<svg version="1.1" xmlns="http://www.w3.org/2000/svg" xmlns:xlink="http://www.w3.org/1999/xlink" x="0px" y="0px" width="32px"
	 height="32px" viewBox="0 0 32 32" enable-background="new 0 0 32 32" xml:space="preserve">
<g id="_x30_1">
</g>
<g id="_x30_2">
</g>
<g id="_x30_3">
</g>
<g id="_x30_4">
</g>
<g id="_x30_5">
	<path fill-rule="evenodd" clip-rule="evenodd" fill="#DB242F" d="M12.646,15.243l-1.069,0.389c0.043-0.557,0.179-1.114,0.428-1.649
		c1.112-2.386,3.958-3.421,6.344-2.309c0.534,0.249,0.997,0.589,1.388,0.988l1.069-0.389c0.299,0.306,0.549,0.649,0.754,1.017
		l-2.28,0.83c0.453,0.812,0.667,1.748,0.597,2.688l2.563-0.933c-0.073-0.919-0.318-1.817-0.72-2.644L24,12.401
		c-0.179-0.369-0.386-0.727-0.626-1.063l-1.069,0.389c-0.711-0.999-1.681-1.833-2.868-2.387c-3.672-1.712-8.053-0.118-9.765,3.554
		c-0.555,1.188-0.76,2.45-0.664,3.672l1.069-0.389c0.033,0.412,0.104,0.818,0.204,1.217L8,18.226
		c0.225,0.89,0.613,1.735,1.148,2.487l2.315-0.843l-1.104,0.402c0.71,0.998,1.678,1.833,2.866,2.387
		c3.672,1.712,8.052,0.118,9.765-3.554c0.555-1.188,0.759-2.449,0.661-3.67l-2.563,0.933c-0.041,0.556-0.182,1.115-0.431,1.65
		c-1.113,2.386-3.959,3.421-6.344,2.309c-0.535-0.25-1.002-0.587-1.391-0.987l-1.211,0.441c-0.658-0.676-1.096-1.53-1.271-2.444
		l2.28-0.83C12.643,16.094,12.614,15.668,12.646,15.243z"/>
</g>
<g id="_x30_6">
</g>
<g id="_x30_7">
</g>
<g id="_x30_8">
</g>
<g id="_x30_9">
</g>
<g id="_x31_0">
</g>
<g id="_x31_1">
</g>
<g id="_x31_2">
</g>
<g id="_x31_3">
</g>
<g id="_x31_4">
</g>
<g id="_x31_5">
</g>
<g id="_x31_6">
</g>
<g id="_x31_7">
</g>
<g id="_x31_8">
</g>
<g id="_x31_9">
</g>
<g id="_x32_0">
</g>
<g id="_x32_1">
</g>
<g id="_x32_2">
</g>
<g id="_x32_3">
</g>
<g id="_x32_4">
</g>
<g id="_x32_5">
</g>
<g id="_x32_6">
</g>
</svg>
