<?xml version="1.0" encoding="UTF-8" standalone="no"?>
<!-- Created with Inkscape (http://www.inkscape.org/) -->

<svg
   xmlns:dc="http://purl.org/dc/elements/1.1/"
   xmlns:cc="http://creativecommons.org/ns#"
   xmlns:rdf="http://www.w3.org/1999/02/22-rdf-syntax-ns#"
   xmlns:svg="http://www.w3.org/2000/svg"
   xmlns="http://www.w3.org/2000/svg"
   version="1.1"
   width="32"
   height="32"
   viewBox="0 0 32 32"
   id="svg2"
   xml:space="preserve"><metadata
     id="metadata12"></metadata><defs
     id="defs10" /><path
     d="m 6,20 c 1.56,0 2.982,0.598 4.05,1.574 l 4.868,-2.604 c 0.284,0.958 0.724,1.864 1.302,2.678 l 0.588,0.828 -4.876,2.612 C 11.976,25.384 12,25.69 12,26 12,29.314 9.314,32 6,32 2.688,32 0,29.314 0,26 0,22.688 2.688,20 6,20 l 0,0 z m 0,4 c -1.104,0 -2,0.896 -2,2 0,1.106 0.896,2 2,2 1.106,0 2,-0.894 2,-2 0,-1.104 -0.894,-2 -2,-2 l 0,0 z M 6,4 C 7.106,4 8,4.896 8,6 8,7.104 7.106,8 6,8 4.896,8 4,7.104 4,6 4,4.896 4.896,4 6,4 l 0,0 z m 5.932,2.914 C 11.976,6.616 12,6.31 12,6 12,2.686 9.314,0 6,0 2.688,0 0,2.686 0,6 c 0,3.314 2.688,6 6,6 1.56,0 2.982,-0.596 4.05,-1.574 l 5.964,3.192 c 0.132,-0.486 0.306,-0.962 0.522,-1.422 0.362,-0.776 0.822,-1.476 1.358,-2.092 l -5.962,-3.19 z"
     id="path4"
     style="fill:#808080;fill-rule:evenodd" /><path
     d="m 21.184,15.278 -1.02,0.372 c 0.042,-0.53 0.17,-1.062 0.408,-1.572 1.06,-2.272 3.772,-3.258 6.042,-2.2 0.51,0.238 0.952,0.562 1.322,0.942 l 1.02,-0.372 c 0.286,0.292 0.524,0.62 0.718,0.97 l -2.174,0.79 c 0.432,0.774 0.636,1.666 0.57,2.562 l 2.442,-0.888 C 30.442,15.006 30.21,14.15 29.826,13.364 L 32,12.572 C 31.83,12.22 31.632,11.88 31.404,11.558 l -1.02,0.372 C 29.706,10.978 28.782,10.184 27.652,9.656 24.154,8.024 19.98,9.544 18.35,13.042 c -0.528,1.132 -0.724,2.334 -0.632,3.498 l 1.02,-0.372 c 0.032,0.392 0.098,0.78 0.194,1.16 L 16.76,18.12 c 0.212,0.85 0.582,1.654 1.094,2.372 l 2.206,-0.802 -1.052,0.382 c 0.676,0.952 1.6,1.746 2.73,2.276 3.5,1.63 7.672,0.112 9.302,-3.386 0.53,-1.132 0.724,-2.334 0.63,-3.498 l -2.442,0.888 c -0.04,0.53 -0.174,1.062 -0.412,1.572 -1.058,2.274 -3.77,3.26 -6.042,2.2 -0.51,-0.236 -0.956,-0.558 -1.324,-0.94 l -1.154,0.42 C 19.67,18.96 19.252,18.146 19.086,17.276 l 2.174,-0.792 c -0.08,-0.394 -0.108,-0.8 -0.076,-1.206 z"
     id="path6"
     style="/*fill:#db242f;fill-rule:evenodd*/" /></svg>