<?xml version="1.0" encoding="utf-8"?>
<!-- Generator: Adobe Illustrator 16.0.0, SVG Export Plug-In . SVG Version: 6.00 Build 0)  -->
<!DOCTYPE svg PUBLIC "-//W3C//DTD SVG 1.1//EN" "http://www.w3.org/Graphics/SVG/1.1/DTD/svg11.dtd">
<svg version="1.1" xmlns="http://www.w3.org/2000/svg" xmlns:xlink="http://www.w3.org/1999/xlink" x="0px" y="0px" width="32px"
	 height="32px" viewBox="0 0 32 32" enable-background="new 0 0 32 32" xml:space="preserve">
<g id="_x30_1">
</g>
<g id="_x30_2">
</g>
<g id="_x30_3">
</g>
<g id="_x30_4">
</g>
<g id="_x30_5">
</g>
<g id="_x30_6">
	<g>
		<path fill-rule="evenodd" clip-rule="evenodd" fill="#808080" d="M11,18c0.78,0,1.491,0.299,2.025,0.787l2.434-1.302
			c0.142,0.479,0.362,0.932,0.651,1.339l0.294,0.414l-2.438,1.306C13.988,20.692,14,20.845,14,21c0,1.657-1.343,3-3,3
			c-1.656,0-3-1.343-3-3C8,19.344,9.344,18,11,18L11,18z M11,20c-0.552,0-1,0.448-1,1c0,0.553,0.448,1,1,1c0.553,0,1-0.447,1-1
			C12,20.448,11.553,20,11,20L11,20z M11,10c0.553,0,1,0.448,1,1s-0.447,1-1,1c-0.552,0-1-0.448-1-1S10.448,10,11,10L11,10z
			 M13.966,11.457C13.988,11.308,14,11.155,14,11c0-1.657-1.343-3-3-3c-1.656,0-3,1.343-3,3c0,1.657,1.344,3,3,3
			c0.78,0,1.491-0.298,2.025-0.787l2.982,1.596c0.066-0.243,0.153-0.481,0.261-0.711c0.181-0.388,0.411-0.738,0.679-1.046
			L13.966,11.457z"/>
		<path fill-rule="evenodd" clip-rule="evenodd" fill="#DB242F" d="M18.592,15.639l-0.51,0.186c0.021-0.265,0.085-0.531,0.204-0.786
			c0.53-1.136,1.886-1.629,3.021-1.1c0.255,0.119,0.476,0.281,0.661,0.471l0.51-0.186c0.143,0.146,0.262,0.31,0.359,0.485
			l-1.087,0.395c0.216,0.387,0.318,0.833,0.285,1.281l1.221-0.444c-0.035-0.438-0.151-0.866-0.343-1.259L24,14.286
			c-0.085-0.176-0.184-0.346-0.298-0.507l-0.51,0.186c-0.339-0.476-0.801-0.873-1.366-1.137c-1.749-0.816-3.836-0.056-4.651,1.693
			c-0.264,0.566-0.362,1.167-0.316,1.749l0.51-0.186c0.016,0.196,0.049,0.39,0.097,0.58l-1.086,0.396
			c0.106,0.425,0.291,0.827,0.547,1.186l1.103-0.401l-0.526,0.191c0.338,0.476,0.8,0.873,1.365,1.138
			c1.75,0.815,3.836,0.056,4.651-1.693c0.265-0.566,0.362-1.167,0.315-1.749l-1.221,0.444c-0.02,0.265-0.087,0.531-0.206,0.786
			c-0.529,1.137-1.885,1.63-3.021,1.1c-0.255-0.118-0.478-0.279-0.662-0.47l-0.577,0.21c-0.313-0.322-0.522-0.729-0.605-1.164
			l1.087-0.396C18.59,16.045,18.576,15.842,18.592,15.639z"/>
	</g>
</g>
<g id="_x30_7">
</g>
<g id="_x30_8">
</g>
<g id="_x30_9">
</g>
<g id="_x31_0">
</g>
<g id="_x31_1">
</g>
<g id="_x31_2">
</g>
<g id="_x31_3">
</g>
<g id="_x31_4">
</g>
<g id="_x31_5">
</g>
<g id="_x31_6">
</g>
<g id="_x31_7">
</g>
<g id="_x31_8">
</g>
<g id="_x31_9">
</g>
<g id="_x32_0">
</g>
<g id="_x32_1">
</g>
<g id="_x32_2">
</g>
<g id="_x32_3">
</g>
<g id="_x32_4">
</g>
<g id="_x32_5">
</g>
<g id="_x32_6">
</g>
</svg>
