<?xml version="1.0" encoding="UTF-8" standalone="no"?>
<!-- Created with Inkscape (http://www.inkscape.org/) -->

<svg
   xmlns:dc="http://purl.org/dc/elements/1.1/"
   xmlns:cc="http://creativecommons.org/ns#"
   xmlns:rdf="http://www.w3.org/1999/02/22-rdf-syntax-ns#"
   xmlns:svg="http://www.w3.org/2000/svg"
   xmlns="http://www.w3.org/2000/svg"
   version="1.1"
   width="32"
   height="32"
   viewBox="0 0 32 32"
   id="svg2"
   xml:space="preserve"><metadata
     id="metadata12"></metadata><defs
     id="defs10" /><path
     d="M 27.501002,0.27118644 H 8.167001 c -0.137995,0 -0.257999,0.049999 -0.356002,0.147998 L 0.145,8.1251874 c -0.096,0.096 -0.144,0.216 -0.144,0.352 V 31.771184 c 0,0.276002 0.224,0.500002 0.4980002,0.500002 H 20.709002 c -1.182001,-1.041999 -2.052002,-2.428002 -2.458003,-4 H 3.999001 V 9.9271864 h 5.155998 c 0.274003,0 0.498003,-0.224 0.498003,-0.500002 v -5.155998 l 14.345999,0 V 18.523184 c 0.638001,-0.16399 1.307998,-0.249999 1.998001,-0.249999 0.691998,0 1.361999,0.08601 2.001999,0.252002 V 0.77118644 c 0.002,-0.276 -0.222001,-0.5 -0.497999,-0.5 l 0,0 z m -15.784,15.48600056 c -0.02201,0.289999 -0.002,0.577999 0.05001,0.859998 l -1.550001,0.564002 c 0.12002,0.621997 0.416,1.203998 0.864,1.664 l 0.825999,-0.298003 c 0.264,0.272 0.582001,0.500002 0.946003,0.672 1.624,0.756002 3.56,0.05002 4.315998,-1.571998 0.17201,-0.364002 0.265999,-0.744 0.294001,-1.124002 l 1.744,-0.633999 c 0.06602,0.830001 -0.072,1.688 -0.452002,2.497999 -1.163998,2.498003 -4.144,3.584 -6.643998,2.420002 -0.808,-0.376 -1.468002,-0.945999 -1.952,-1.625999 l 0.752,-0.274003 -1.576,0.572002 c -0.363997,-0.512 -0.625994,-1.088 -0.781996,-1.694001 l 1.552,-0.563998 C 10.037026,16.951186 9.987011,16.673185 9.967021,16.393185 l -0.728,0.264 c -0.064,-0.832 0.074,-1.689999 0.454001,-2.499998 1.163998,-2.498003 4.145999,-3.584 6.643998,-2.418003 0.808,0.376 1.468002,0.946003 1.953999,1.626003 l 0.726001,-0.264 c 0.16399,0.227998 0.304,0.472 0.428002,0.721999 l -1.552002,0.566001 c 0.274001,0.561999 0.44,1.171998 0.490001,1.8 l -1.746011,0.633999 c 0.048,-0.64 -0.09802,-1.276002 -0.405999,-1.830001 l 1.552,-0.563998 C 17.644998,14.179184 17.473,13.945185 17.268998,13.737185 l -0.725997,0.265999 c -0.266003,-0.272 -0.582001,-0.504 -0.946003,-0.672 -1.624,-0.755998 -3.56,-0.05199 -4.317997,1.570003 -0.16798,0.363998 -0.260002,0.744 -0.290003,1.123998 l 0.728004,-0.267998 z"
     id="path4"
     style="fill:#808080;fill-rule:evenodd" /><path
     d="m 25.999001,20.271186 c 3.313999,0 6,2.688 6,6 0,3.313999 -2.686001,6 -6,6 -3.312,0 -6,-2.686001 -6,-6 0,-3.312 2.688,-6 6,-6 l 0,0 z m 1.001999,9 -0.002,-1.998001 h 2 v -2.001999 h -1.998001 v -2 h -2 l -0.002,2 h -2 l 0.002,2.001999 1.998001,-0.002 v 2 h 2.001999 z"
     id="path6"
     style="/*fill:#72ad42;fill-rule:evenodd*/" /></svg>