<?xml version="1.0" encoding="utf-8"?>
<!-- Generator: Adobe Illustrator 16.0.0, SVG Export Plug-In . SVG Version: 6.00 Build 0)  -->
<!DOCTYPE svg PUBLIC "-//W3C//DTD SVG 1.1//EN" "http://www.w3.org/Graphics/SVG/1.1/DTD/svg11.dtd">
<svg version="1.1" xmlns="http://www.w3.org/2000/svg" xmlns:xlink="http://www.w3.org/1999/xlink" x="0px" y="0px" width="32px"
	 height="32px" viewBox="0 0 32 32" enable-background="new 0 0 32 32" xml:space="preserve">
<g id="_x30_1">
</g>
<g id="_x30_2">
</g>
<g id="_x30_3">
</g>
<g id="_x30_4">
</g>
<g id="_x30_5">
</g>
<g id="_x30_6">
</g>
<g id="_x30_7">
</g>
<g id="_x30_8">
	<g>
		<path fill-rule="evenodd" clip-rule="evenodd" fill="#808080" d="M21.751,8h-9.667c-0.069,0-0.129,0.025-0.178,0.074l-3.833,3.853
			c-0.048,0.048-0.072,0.108-0.072,0.176V23.75c0,0.138,0.112,0.25,0.249,0.25h10.105c-0.591-0.521-1.026-1.214-1.229-2h-7.126
			v-9.172h2.578c0.137,0,0.249-0.112,0.249-0.25V10l7.173,0v7.126c0.319-0.082,0.654-0.125,0.999-0.125
			c0.346,0,0.681,0.043,1.001,0.126V8.25C22.001,8.112,21.889,8,21.751,8L21.751,8z M13.859,15.743
			c-0.011,0.145-0.001,0.289,0.025,0.43l-0.775,0.282c0.06,0.311,0.208,0.602,0.432,0.832l0.413-0.149
			c0.132,0.136,0.291,0.25,0.473,0.336c0.812,0.378,1.78,0.025,2.158-0.786c0.086-0.182,0.133-0.372,0.147-0.562l0.872-0.317
			c0.033,0.415-0.036,0.844-0.226,1.249c-0.582,1.249-2.072,1.792-3.322,1.21c-0.404-0.188-0.734-0.473-0.976-0.813l0.376-0.137
			l-0.788,0.286c-0.182-0.256-0.313-0.544-0.391-0.847l0.776-0.282c-0.034-0.135-0.059-0.274-0.069-0.414l-0.364,0.132
			c-0.032-0.416,0.037-0.845,0.227-1.25c0.582-1.249,2.073-1.792,3.322-1.209c0.404,0.188,0.734,0.473,0.977,0.813l0.363-0.132
			c0.082,0.114,0.152,0.236,0.214,0.361l-0.776,0.283c0.137,0.281,0.22,0.586,0.245,0.9l-0.873,0.317
			c0.024-0.32-0.049-0.638-0.203-0.915l0.776-0.282c-0.069-0.125-0.155-0.242-0.257-0.346l-0.363,0.133
			c-0.133-0.136-0.291-0.252-0.473-0.336c-0.812-0.378-1.78-0.026-2.159,0.785c-0.084,0.182-0.13,0.372-0.145,0.562L13.859,15.743z"
			/>
		<path fill-rule="evenodd" clip-rule="evenodd" fill="#72AD42" d="M21,18c1.657,0,3,1.344,3,3c0,1.657-1.343,3-3,3
			c-1.656,0-3-1.343-3-3C18,19.344,19.344,18,21,18L21,18z M21.501,22.5L21.5,21.501h1V20.5h-0.999v-1h-1l-0.001,1h-1l0.001,1.001
			L20.5,21.5v1H21.501z"/>
	</g>
</g>
<g id="_x30_9">
</g>
<g id="_x31_0">
</g>
<g id="_x31_1">
</g>
<g id="_x31_2">
</g>
<g id="_x31_3">
</g>
<g id="_x31_4">
</g>
<g id="_x31_5">
</g>
<g id="_x31_6">
</g>
<g id="_x31_7">
</g>
<g id="_x31_8">
</g>
<g id="_x31_9">
</g>
<g id="_x32_0">
</g>
<g id="_x32_1">
</g>
<g id="_x32_2">
</g>
<g id="_x32_3">
</g>
<g id="_x32_4">
</g>
<g id="_x32_5">
</g>
<g id="_x32_6">
</g>
</svg>
