<?xml version="1.0" encoding="UTF-8" standalone="no"?>
<!-- Created with Inkscape (http://www.inkscape.org/) -->

<svg
   xmlns:dc="http://purl.org/dc/elements/1.1/"
   xmlns:cc="http://creativecommons.org/ns#"
   xmlns:rdf="http://www.w3.org/1999/02/22-rdf-syntax-ns#"
   xmlns:svg="http://www.w3.org/2000/svg"
   xmlns="http://www.w3.org/2000/svg"
   version="1.1"
   width="32"
   height="32"
   viewBox="0 0 32 32"
   id="svg2"
   xml:space="preserve"><metadata
     id="metadata12"></metadata><defs
     id="defs10" /><path
     d="M 9.7634068,0 H 29.865407 c 1.1,0 1.998,0.902 1.998,2 v 22.002 h -1 v -3 h -2.998 V 4 h -14.102 l -4.0000002,-4 0,0 z m 4.4820002,14.382 -0.874,0.318 c 0.036,-0.454 0.146,-0.91 0.35,-1.346 0.908,-1.948 3.232,-2.792 5.18,-1.884 0.438,0.204 0.816,0.482 1.134,0.806 l 0.874,-0.318 c 0.244,0.25 0.45,0.53 0.616,0.83 l -1.862,0.676 c 0.37,0.664 0.544,1.426 0.486,2.196 l 2.094,-0.762 c -0.06,-0.75 -0.26,-1.484 -0.588,-2.158 l 1.864,-0.678 c -0.146,-0.302 -0.316,-0.594 -0.512,-0.868 l -0.874,0.318 c -0.582,-0.814 -1.374,-1.496 -2.342,-1.948 -3,-1.398 -6.578,-0.096 -7.974,2.902 -0.454,0.97 -0.622,2 -0.542,3 l 0.874,-0.318 c 0.028,0.336 0.086,0.668 0.168,0.994 l -1.864,0.678 c 0.184,0.728 0.5,1.416 0.938,2.032 l 1.89,-0.69 -0.902,0.328 c 0.58,0.816 1.372,1.498 2.34,1.95 3,1.398 6.576,0.098 7.974,-2.9 0.454,-0.97 0.622,-2 0.542,-2.998 l -2.094,0.762 c -0.034,0.454 -0.148,0.91 -0.352,1.346 -0.91,1.948 -3.232,2.794 -5.182,1.886 -0.436,-0.206 -0.818,-0.48 -1.134,-0.806 l -0.99,0.362 c -0.538,-0.552 -0.894,-1.25 -1.038,-1.996 l 1.864,-0.678 c -0.066,-0.34 -0.088,-0.688 -0.064,-1.036 l 0,0 z m 6.622,15.618 -0.004,-4 H 6.1074068 V 4.244 h 2.242 L 4.1074068,0 -0.13459322,4.244 H 2.1074068 v 23.758 c 0,1.1 0.9,1.998 2,1.998 H 20.867407 z"
     id="path4"
     style="fill:#808080;fill-rule:evenodd" /><polygon
     points="19.501,22.501 19.5,21.001 21,21.001 21.001,19.501 22.501,19.501 22.501,21.001 24,21.001 24,22.501 22.5,22.501 22.501,24 21,24 21,22.501 "
     transform="matrix(2,0,0,2,-16.136593,-16)"
     id="polygon6"
     style="/*fill:#72ad42;fill-rule:evenodd*/" /></svg>