<?xml version="1.0" encoding="utf-8"?>
<!-- Generator: Adobe Illustrator 16.0.0, SVG Export Plug-In . SVG Version: 6.00 Build 0)  -->
<!DOCTYPE svg PUBLIC "-//W3C//DTD SVG 1.1//EN" "http://www.w3.org/Graphics/SVG/1.1/DTD/svg11.dtd">
<svg version="1.1" xmlns="http://www.w3.org/2000/svg" xmlns:xlink="http://www.w3.org/1999/xlink" x="0px" y="0px" width="32px"
	 height="32px" viewBox="0 0 32 32" enable-background="new 0 0 32 32" xml:space="preserve">
<g id="_x30_1">
</g>
<g id="_x30_2">
</g>
<g id="_x30_3">
</g>
<g id="_x30_4">
</g>
<g id="_x30_5">
</g>
<g id="_x30_6">
</g>
<g id="_x30_7">
</g>
<g id="_x30_8">
</g>
<g id="_x30_9">
</g>
<g id="_x31_0">
</g>
<g id="_x31_1">
</g>
<g id="_x31_2">
	<g>
		<path fill-rule="evenodd" clip-rule="evenodd" fill="#808080" d="M12.95,8h10.051C23.551,8,24,8.451,24,9v13.001
			C24,22.55,23.55,23,23.001,23H10.122c-0.55,0-1-0.449-1-0.999V10.122H8.001L10.122,8l2.121,2.122h-1.121V21h10.879V10H14.95
			L12.95,8z"/>
		<path fill-rule="evenodd" clip-rule="evenodd" fill="#DB242F" d="M15.191,15.191l-0.437,0.159
			c0.018-0.227,0.073-0.455,0.175-0.673c0.454-0.974,1.616-1.396,2.59-0.942c0.219,0.102,0.407,0.241,0.566,0.403l0.438-0.159
			c0.122,0.125,0.225,0.265,0.308,0.415L17.9,14.732c0.185,0.332,0.271,0.713,0.243,1.098l1.047-0.381
			c-0.03-0.375-0.13-0.742-0.294-1.079l0.932-0.339c-0.073-0.151-0.158-0.297-0.256-0.434l-0.438,0.159
			c-0.29-0.407-0.686-0.748-1.171-0.974c-1.499-0.699-3.288-0.048-3.987,1.451c-0.226,0.485-0.31,1-0.271,1.5l0.437-0.159
			c0.014,0.168,0.043,0.334,0.083,0.497l-0.931,0.339c0.092,0.364,0.25,0.708,0.469,1.016l0.945-0.345l-0.451,0.164
			c0.29,0.408,0.686,0.749,1.17,0.975c1.5,0.699,3.288,0.049,3.987-1.45c0.227-0.485,0.311-1,0.271-1.499l-1.047,0.381
			c-0.017,0.227-0.074,0.455-0.176,0.673c-0.455,0.974-1.616,1.397-2.591,0.943c-0.218-0.103-0.409-0.24-0.567-0.403l-0.495,0.181
			c-0.269-0.276-0.447-0.625-0.519-0.998l0.932-0.339C15.19,15.539,15.179,15.365,15.191,15.191z"/>
	</g>
</g>
<g id="_x31_3">
</g>
<g id="_x31_4">
</g>
<g id="_x31_5">
</g>
<g id="_x31_6">
</g>
<g id="_x31_7">
</g>
<g id="_x31_8">
</g>
<g id="_x31_9">
</g>
<g id="_x32_0">
</g>
<g id="_x32_1">
</g>
<g id="_x32_2">
</g>
<g id="_x32_3">
</g>
<g id="_x32_4">
</g>
<g id="_x32_5">
</g>
<g id="_x32_6">
</g>
</svg>
