<?xml version="1.0" encoding="UTF-8" standalone="no"?>
<!-- Created with Inkscape (http://www.inkscape.org/) -->

<svg
   xmlns:dc="http://purl.org/dc/elements/1.1/"
   xmlns:cc="http://creativecommons.org/ns#"
   xmlns:rdf="http://www.w3.org/1999/02/22-rdf-syntax-ns#"
   xmlns:svg="http://www.w3.org/2000/svg"
   xmlns="http://www.w3.org/2000/svg"
   version="1.1"
   width="32"
   height="32"
   viewBox="0 0 32 32"
   id="svg2"
   xml:space="preserve"><metadata
     id="metadata12"></metadata><defs
     id="defs10" /><path
     d="M 9.7640258,1.065922 H 29.867282 c 1.100069,0 1.998125,0.9020559 1.998125,2.0001249 V 29.069672 c 0,1.098069 -0.900056,1.998125 -1.998125,1.998125 H 4.1076718 c -1.100069,0 -2.000125,-0.898056 -2.000125,-1.998125 V 5.3101869 H -0.13459322 L 4.1076718,1.065922 8.3499368,5.3101869 h -2.24214 V 27.067547 H 27.867157 V 5.0661719 H 13.764276 L 9.7640258,1.065922 z"
     id="path4"
     style="fill:#808080;fill-rule:evenodd" /><path
     d="m 14.246306,15.44882 -0.874055,0.31802 c 0.036,-0.454028 0.146009,-0.910057 0.350022,-1.346084 0.908057,-1.948122 3.232202,-2.792174 5.180324,-1.884118 0.438027,0.204013 0.814051,0.482031 1.132071,0.806051 l 0.876054,-0.31802 c 0.244016,0.250016 0.450028,0.530033 0.616039,0.830052 l -1.862117,0.676042 c 0.370024,0.664042 0.542034,1.426089 0.486031,2.196137 l 2.094131,-0.762047 c -0.06,-0.750047 -0.260017,-1.484093 -0.588037,-2.158135 l 1.864116,-0.678043 c -0.146009,-0.302018 -0.316019,-0.594037 -0.512032,-0.868054 l -0.876054,0.31802 c -0.580037,-0.814051 -1.372086,-1.496093 -2.342147,-1.948122 -2.998187,-1.3980871 -6.576411,-0.09601 -7.974498,2.902182 -0.452028,0.97006 -0.620039,2.000125 -0.542034,3.000187 l 0.874055,-0.31802 c 0.028,0.336021 0.08601,0.668042 0.16601,0.994062 l -1.862116,0.678043 c 0.184011,0.728046 0.500031,1.416089 0.938058,2.032127 l 1.890118,-0.690043 -0.902056,0.328021 c 0.580036,0.816051 1.372086,1.498093 2.340146,1.950121 3.000188,1.398088 6.576411,0.09801 7.974499,-2.900181 0.454028,-0.970061 0.622039,-2.000125 0.542034,-2.998188 l -2.094131,0.762048 c -0.034,0.454028 -0.14801,0.910057 -0.352022,1.346084 -0.910057,1.948122 -3.232202,2.794175 -5.182324,1.886118 -0.436027,-0.206012 -0.818051,-0.48003 -1.134071,-0.80605 l -0.990062,0.362023 c -0.538034,-0.552035 -0.894056,-1.250079 -1.038065,-1.996125 l 1.864117,-0.678043 c -0.064,-0.340021 -0.08601,-0.688043 -0.062,-1.036065 z"
     id="path6"
     style="/*fill:#db242f;fill-rule:evenodd*/" /></svg>