<?xml version="1.0" encoding="utf-8"?>
<!-- Generator: Adobe Illustrator 16.0.0, SVG Export Plug-In . SVG Version: 6.00 Build 0)  -->
<!DOCTYPE svg PUBLIC "-//W3C//DTD SVG 1.1//EN" "http://www.w3.org/Graphics/SVG/1.1/DTD/svg11.dtd">
<svg version="1.1" xmlns="http://www.w3.org/2000/svg" xmlns:xlink="http://www.w3.org/1999/xlink" x="0px" y="0px" width="32px"
	 height="32px" viewBox="0 0 32 32" enable-background="new 0 0 32 32" xml:space="preserve">
<g id="_x30_1">
</g>
<g id="_x30_2">
</g>
<g id="_x30_3">
</g>
<g id="_x30_4">
</g>
<g id="_x30_5">
</g>
<g id="_x30_6">
</g>
<g id="_x30_7">
</g>
<g id="_x30_8">
</g>
<g id="_x30_9">
	<path fill-rule="evenodd" clip-rule="evenodd" fill="#4D4D4D" d="M21.641,22.313 M16,16"/>
	<g>
		<path fill-rule="evenodd" clip-rule="evenodd" fill="#808080" d="M21.751,8h-9.667c-0.069,0-0.129,0.025-0.178,0.074l-3.833,3.853
			c-0.048,0.048-0.072,0.108-0.072,0.176V23.75c0,0.138,0.112,0.25,0.249,0.25c3.917,0,7.834,0,11.751,0h0.465l-2-2h-8.465v-9.172
			h2.578c0.137,0,0.249-0.112,0.249-0.25V10l7.173,0v9.192c0.281-0.766,1.018-1.313,1.878-1.313h0.122V8.25
			C22.001,8.112,21.889,8,21.751,8L21.751,8z M13.859,15.743c-0.011,0.145-0.001,0.289,0.025,0.43l-0.775,0.282
			c0.06,0.311,0.208,0.602,0.433,0.832l0.412-0.149c0.132,0.136,0.291,0.25,0.473,0.335c0.812,0.379,1.78,0.026,2.159-0.785
			c0.084-0.182,0.132-0.372,0.146-0.562l0.872-0.317c0.033,0.415-0.036,0.844-0.226,1.249c-0.582,1.249-2.072,1.792-3.322,1.21
			c-0.404-0.189-0.733-0.474-0.975-0.813l0.375-0.137l-0.788,0.286c-0.182-0.256-0.313-0.544-0.39-0.847l0.775-0.282
			c-0.034-0.135-0.058-0.274-0.069-0.414l-0.363,0.132c-0.033-0.416,0.037-0.845,0.226-1.25c0.582-1.249,2.073-1.792,3.322-1.209
			c0.404,0.188,0.734,0.472,0.977,0.812l0.363-0.132c0.082,0.114,0.152,0.236,0.213,0.362l-0.775,0.282
			c0.137,0.281,0.22,0.586,0.245,0.9l-0.872,0.317c0.023-0.32-0.05-0.638-0.204-0.915l0.776-0.282
			c-0.069-0.125-0.155-0.242-0.257-0.346l-0.364,0.132c-0.132-0.136-0.29-0.251-0.472-0.336c-0.812-0.378-1.78-0.026-2.158,0.785
			c-0.085,0.182-0.131,0.372-0.146,0.562L13.859,15.743z"/>
		<path fill-rule="evenodd" clip-rule="evenodd" fill="#3193D4" d="M24,21.879h-1.121v-3h-1c-0.55,0-1,0.449-1,1v2h-1.121L21.879,24
			L24,21.879z"/>
	</g>
</g>
<g id="_x31_0">
</g>
<g id="_x31_1">
</g>
<g id="_x31_2">
</g>
<g id="_x31_3">
</g>
<g id="_x31_4">
</g>
<g id="_x31_5">
</g>
<g id="_x31_6">
</g>
<g id="_x31_7">
</g>
<g id="_x31_8">
</g>
<g id="_x31_9">
</g>
<g id="_x32_0">
</g>
<g id="_x32_1">
</g>
<g id="_x32_2">
</g>
<g id="_x32_3">
</g>
<g id="_x32_4">
</g>
<g id="_x32_5">
</g>
<g id="_x32_6">
</g>
</svg>
