<?xml version="1.0" encoding="utf-8"?>
<!-- Generator: Adobe Illustrator 16.0.0, SVG Export Plug-In . SVG Version: 6.00 Build 0)  -->
<!DOCTYPE svg PUBLIC "-//W3C//DTD SVG 1.1//EN" "http://www.w3.org/Graphics/SVG/1.1/DTD/svg11.dtd">
<svg version="1.1" xmlns="http://www.w3.org/2000/svg" xmlns:xlink="http://www.w3.org/1999/xlink" x="0px" y="0px" width="32px"
	 height="32px" viewBox="0 0 32 32" enable-background="new 0 0 32 32" xml:space="preserve">
<g id="_x30_1">
</g>
<g id="_x30_2">
</g>
<g id="_x30_3">
</g>
<g id="_x30_4">
</g>
<g id="_x30_5">
</g>
<g id="_x30_6">
</g>
<g id="_x30_7">
</g>
<g id="_x30_8">
</g>
<g id="_x30_9">
</g>
<g id="_x31_0">
</g>
<g id="_x31_1">
	<g>
		<path fill-rule="evenodd" clip-rule="evenodd" fill="#808080" d="M8.25,8h9.668c0.068,0,0.128,0.025,0.177,0.074l3.833,3.853
			c0.049,0.048,0.073,0.108,0.073,0.176v4.508c-0.073-0.059-0.149-0.113-0.229-0.164c-0.542-0.349-1.166-0.49-1.771-0.435v-3.185
			h-2.578c-0.138,0-0.25-0.112-0.25-0.25V10L10,10v12h5.49c-0.008,0.123-0.008,0.246,0.002,0.37c0.043,0.61,0.297,1.181,0.689,1.63
			H8.25C8.113,24,8,23.888,8,23.75V8.25C8,8.112,8.113,8,8.25,8L8.25,8z M13.859,15.743l-0.363,0.132
			c0.014-0.189,0.061-0.379,0.145-0.562c0.379-0.812,1.348-1.164,2.159-0.785c0.182,0.085,0.339,0.201,0.472,0.336l0.364-0.132
			c0.102,0.104,0.187,0.221,0.257,0.346l-0.776,0.282c0.154,0.276,0.228,0.595,0.203,0.915l0.872-0.317
			c-0.024-0.313-0.108-0.619-0.245-0.9l0.776-0.282c-0.061-0.126-0.131-0.248-0.213-0.362l-0.363,0.132
			c-0.242-0.34-0.572-0.624-0.977-0.812c-1.249-0.583-2.74-0.04-3.322,1.209c-0.189,0.404-0.259,0.834-0.227,1.25l0.364-0.132
			c0.011,0.14,0.035,0.279,0.069,0.414l-0.776,0.282c0.076,0.303,0.209,0.591,0.391,0.847l0.788-0.286l-0.376,0.137
			c0.242,0.339,0.571,0.623,0.976,0.813c1.249,0.582,2.74,0.039,3.322-1.21c0.188-0.404,0.259-0.833,0.225-1.249l-0.872,0.317
			c-0.014,0.189-0.062,0.38-0.146,0.562c-0.378,0.812-1.347,1.164-2.158,0.785c-0.183-0.085-0.341-0.199-0.474-0.335l-0.412,0.149
			c-0.224-0.229-0.372-0.521-0.432-0.832l0.775-0.282C13.858,16.032,13.849,15.887,13.859,15.743z"/>
		<path fill-rule="evenodd" clip-rule="evenodd" fill="#CF405F" d="M20.008,19.935c-0.313,0.525-0.612,1.034-0.918,1.54
			c-0.079,0.129-0.118,0.235-0.055,0.4c0.173,0.455-0.071,0.898-0.53,1.019c-0.434,0.114-0.855-0.171-0.941-0.635
			c-0.076-0.41,0.242-0.813,0.694-0.877c0.038-0.006,0.077-0.006,0.141-0.011c0.222-0.372,0.449-0.753,0.688-1.154
			c-0.433-0.431-0.69-0.935-0.634-1.559c0.04-0.44,0.214-0.821,0.531-1.134c0.606-0.598,1.532-0.694,2.247-0.236
			c0.687,0.441,1.001,1.301,0.732,2.035c-0.202-0.055-0.405-0.109-0.629-0.171c0.084-0.408,0.022-0.775-0.254-1.09
			c-0.182-0.207-0.415-0.316-0.682-0.356c-0.532-0.08-1.056,0.263-1.21,0.785C19.013,19.084,19.279,19.569,20.008,19.935
			L20.008,19.935L20.008,19.935z M21.428,22.49L21.428,22.49c0.058,0.077,0.104,0.152,0.163,0.215
			c0.286,0.306,0.769,0.32,1.074,0.037c0.316-0.294,0.33-0.787,0.031-1.095c-0.293-0.3-0.793-0.329-1.064-0.011
			c-0.165,0.193-0.335,0.216-0.554,0.213c-0.561-0.009-1.123-0.003-1.684-0.003c0.036,0.789-0.263,1.281-0.854,1.397
			c-0.579,0.115-1.113-0.181-1.301-0.721c-0.214-0.613,0.051-1.103,0.813-1.492c-0.058-0.208-0.115-0.418-0.173-0.627
			c-0.832,0.182-1.455,0.987-1.391,1.895c0.057,0.802,0.703,1.513,1.493,1.641c0.429,0.069,0.832-0.003,1.206-0.215
			c0.481-0.273,0.761-0.703,0.89-1.234H21.428L21.428,22.49z M20.901,19.313L20.901,19.313c0.034-0.086,0.065-0.156,0.091-0.229
			c0.088-0.261,0.034-0.498-0.133-0.709c-0.205-0.259-0.562-0.354-0.866-0.237c-0.308,0.118-0.504,0.42-0.49,0.753
			c0.014,0.338,0.24,0.639,0.591,0.699c0.21,0.036,0.313,0.137,0.405,0.308c0.276,0.51,0.566,1.012,0.853,1.519
			c0.688-0.459,1.256-0.444,1.681,0.033c0.368,0.414,0.376,1.044,0.018,1.466c-0.419,0.496-0.983,0.516-1.63,0.098
			c-0.179,0.149-0.347,0.29-0.513,0.429c0.654,0.653,1.587,0.74,2.325,0.231c0.719-0.495,0.97-1.445,0.604-2.247
			c-0.303-0.664-1.148-1.284-2.269-0.938C21.346,20.096,21.121,19.701,20.901,19.313z"/>
	</g>
</g>
<g id="_x31_2">
</g>
<g id="_x31_3">
</g>
<g id="_x31_4">
</g>
<g id="_x31_5">
</g>
<g id="_x31_6">
</g>
<g id="_x31_7">
</g>
<g id="_x31_8">
</g>
<g id="_x31_9">
</g>
<g id="_x32_0">
</g>
<g id="_x32_1">
</g>
<g id="_x32_2">
</g>
<g id="_x32_3">
</g>
<g id="_x32_4">
</g>
<g id="_x32_5">
</g>
<g id="_x32_6">
</g>
</svg>
