<?xml version="1.0" encoding="utf-8"?>
<!-- Generator: Adobe Illustrator 16.0.0, SVG Export Plug-In . SVG Version: 6.00 Build 0)  -->
<!DOCTYPE svg PUBLIC "-//W3C//DTD SVG 1.1//EN" "http://www.w3.org/Graphics/SVG/1.1/DTD/svg11.dtd">
<svg version="1.1" xmlns="http://www.w3.org/2000/svg" xmlns:xlink="http://www.w3.org/1999/xlink" x="0px" y="0px" width="32px"
	 height="32px" viewBox="0 0 32 32" enable-background="new 0 0 32 32" xml:space="preserve">
<g id="_x30_1">
</g>
<g id="_x30_2">
</g>
<g id="_x30_3">
</g>
<g id="_x30_4">
</g>
<g id="_x30_5">
</g>
<g id="_x30_6">
</g>
<g id="_x30_7">
</g>
<g id="_x30_8">
</g>
<g id="_x30_9">
</g>
<g id="_x31_0">
	<g>
		<path fill-rule="evenodd" clip-rule="evenodd" fill="#808080" d="M21.751,8h-9.667c-0.069,0-0.129,0.025-0.178,0.074l-3.833,3.853
			C8.025,11.975,8,12.035,8,12.103V23.75C8,23.888,8.113,24,8.25,24h8.966l-0.676-0.676c-0.364-0.364-0.544-0.845-0.538-1.324H10
			v-9.172h2.578c0.138,0,0.25-0.112,0.25-0.25V10l7.173,0v7.257l0.717-0.718c0.354-0.354,0.817-0.533,1.282-0.538V8.25
			C22,8.112,21.889,8,21.751,8L21.751,8z M13.859,15.743c-0.011,0.145-0.001,0.289,0.025,0.43l-0.775,0.282
			c0.06,0.311,0.208,0.602,0.432,0.832l0.412-0.149c0.133,0.136,0.292,0.25,0.474,0.335c0.812,0.379,1.779,0.026,2.158-0.785
			c0.085-0.182,0.133-0.372,0.146-0.562l0.872-0.317c0.034,0.415-0.036,0.844-0.225,1.249c-0.582,1.249-2.073,1.792-3.322,1.21
			c-0.404-0.189-0.734-0.474-0.976-0.813l0.376-0.137l-0.788,0.286c-0.182-0.256-0.314-0.544-0.391-0.847l0.776-0.282
			c-0.034-0.135-0.059-0.274-0.069-0.414l-0.364,0.132c-0.032-0.416,0.037-0.845,0.227-1.25c0.582-1.249,2.072-1.792,3.322-1.209
			c0.404,0.188,0.733,0.472,0.976,0.812l0.364-0.132c0.081,0.114,0.152,0.236,0.213,0.362l-0.776,0.282
			c0.137,0.281,0.221,0.586,0.245,0.9l-0.872,0.317c0.024-0.32-0.049-0.638-0.203-0.915l0.776-0.282
			c-0.07-0.125-0.155-0.242-0.257-0.346l-0.364,0.132c-0.133-0.136-0.29-0.251-0.472-0.336c-0.812-0.378-1.78-0.026-2.158,0.785
			c-0.085,0.182-0.132,0.372-0.146,0.562L13.859,15.743z"/>
		<path fill-rule="evenodd" clip-rule="evenodd" fill="#3193D4" d="M17.247,21.424l1.193-1.193c0.328-0.328,0.865-0.328,1.193,0
			l-1.79,1.79l1.136,1.137l1.791-1.79c0.328,0.328,0.328,0.864,0,1.192l-1.194,1.194c-0.328,0.328-0.864,0.328-1.193,0l-1.136-1.137
			C16.919,22.289,16.919,21.753,17.247,21.424L17.247,21.424z M19.605,21.992l2.387-2.387c0.164-0.165,0.164-0.433,0-0.597v-0.001
			c-0.164-0.164-0.433-0.164-0.597,0l-2.387,2.388c-0.164,0.164-0.165,0.432-0.001,0.597h0.001
			C19.173,22.156,19.441,22.156,19.605,21.992L19.605,21.992z M20.23,18.44c-0.328,0.328-0.328,0.864,0,1.193l1.791-1.791
			l1.136,1.137l-1.79,1.79c0.328,0.329,0.864,0.329,1.193,0l1.193-1.193c0.328-0.328,0.329-0.865,0-1.193l-1.136-1.136
			c-0.328-0.329-0.865-0.329-1.193-0.001L20.23,18.44z"/>
	</g>
</g>
<g id="_x31_1">
</g>
<g id="_x31_2">
</g>
<g id="_x31_3">
</g>
<g id="_x31_4">
</g>
<g id="_x31_5">
</g>
<g id="_x31_6">
</g>
<g id="_x31_7">
</g>
<g id="_x31_8">
</g>
<g id="_x31_9">
</g>
<g id="_x32_0">
</g>
<g id="_x32_1">
</g>
<g id="_x32_2">
</g>
<g id="_x32_3">
</g>
<g id="_x32_4">
</g>
<g id="_x32_5">
</g>
<g id="_x32_6">
</g>
</svg>
